<?xml version="1.0" encoding="UTF-8" standalone="no"?><!DOCTYPE svg PUBLIC "-//W3C//DTD SVG 1.1//EN" "http://www.w3.org/Graphics/SVG/1.1/DTD/svg11.dtd"><svg width="100%" height="100%" viewBox="0 0 813 1171" version="1.1" xmlns="http://www.w3.org/2000/svg" xmlns:xlink="http://www.w3.org/1999/xlink" xml:space="preserve" xmlns:serif="http://www.serif.com/" style="fill-rule:evenodd;clip-rule:evenodd;stroke-linecap:round;stroke-linejoin:round;stroke-miterlimit:1.5;"><g><path d="M102.871,103.238l571.983,-95.801l23.092,22.459l2.85,28.2l47.542,7.546l8.699,22.579l-1.837,31.008l-646.663,-2.317l-5.666,-13.675Z" style="fill:#fff;stroke:#fff;stroke-width:13.04px;"/><path d="M776.288,107.179l-12.538,0l0,-17.604c0,-21.275 -16.942,-38.567 -37.762,-38.567l-2.98,0l-16.458,1.263l0,-13.542c0,-11.354 -7.046,-21.912 -14.662,-28.946c-5.509,-5.075 -15.405,-10.871 -31.238,-9.608l-0.325,0.025l-633.713,103.908c-4.541,0.742 -8.799,2.696 -12.329,5.65c-6.379,5.367 -9.087,8.959 -9.975,13.554c-2.72,4.717 -4.308,10.159 -4.308,15.967l0,997.667c0,17.658 14.454,32.108 32.108,32.108l744.18,0c17.658,0 32.112,-14.45 32.112,-32.108l0,-997.667c0,-17.658 -14.454,-32.1 -32.112,-32.1Zm-114.051,-91.012c7.83,-0.563 14.313,1.312 18.767,5.416c4.333,4.009 6.821,10.259 6.821,17.146l0.079,14.963l-478.958,36.795l453.292,-74.32Zm85.458,91.012l-546.459,0l522.359,-40.129c14.517,0.158 24.1,10.196 24.1,22.525l-0,17.604Z" style="fill-rule:nonzero;"/><g><circle cx="417.354" cy="1017.25" r="31.296" style="fill:#fff;stroke:#fff;stroke-width:19.54px;stroke-linecap:square;stroke-linejoin:miter;"/><ellipse cx="416.975" cy="1044.62" rx="113.317" ry="22.667" style="fill:#fff;stroke:#fff;stroke-width:19.54px;stroke-linecap:square;stroke-linejoin:miter;"/><path d="M416.257,526.129l1.118,518.729" style="fill:none;stroke:#fff;stroke-width:18.4px;stroke-linecap:square;stroke-linejoin:miter;"/><g><path d="M445.713,478.883l-59.784,0c-4.912,0 -8.9,3.988 -8.9,8.896c0,4.988 3.988,8.975 8.9,8.975l59.784,0c4.912,0 8.908,-3.987 8.908,-8.896c-0,-4.987 -3.996,-8.975 -8.909,-8.975Z" style="fill:#fff;fill-rule:nonzero;"/><path d="M435.171,502.771l-38.704,-0c0.004,0.062 0.037,0.108 0.037,0.175c0,10.65 8.663,19.317 19.313,19.317c10.654,-0 19.321,-8.667 19.321,-19.317c-0,-0.067 0.029,-0.117 0.033,-0.175Z" style="fill:#fff;fill-rule:nonzero;"/><path d="M441.804,355.625c-2.162,2.075 -4.858,4.663 -10.058,4.663c-5.192,-0 -7.892,-2.588 -10.054,-4.663c-1.88,-1.804 -3.121,-2.992 -5.909,-2.992c-2.762,0 -4,1.184 -5.871,2.988c-2.162,2.079 -4.854,4.667 -10.05,4.667c-5.187,-0 -7.883,-2.588 -10.045,-4.663c-0.659,-0.637 -1.25,-1.158 -1.846,-1.612l20.712,94.745l14.267,0l20.717,-94.75c-0.6,0.45 -1.196,0.98 -1.863,1.617Z" style="fill:#fff;fill-rule:nonzero;"/><path d="M491.708,365.567c0,-44.079 -34.041,-79.938 -75.891,-79.938c-41.842,0 -75.884,35.859 -75.884,79.938c-0.004,27.933 21.925,62.779 52.217,83.187l10.379,0l-21.529,-98.483c-0.025,-0.113 0.008,-0.217 -0.004,-0.329c-0.013,-0.109 -0.067,-0.2 -0.067,-0.313c0,-0.096 0.046,-0.175 0.058,-0.271c0.017,-0.208 0.059,-0.404 0.121,-0.6c0.055,-0.183 0.113,-0.35 0.204,-0.512c0.088,-0.175 0.201,-0.329 0.321,-0.479c0.121,-0.15 0.242,-0.284 0.388,-0.409c0.146,-0.125 0.3,-0.22 0.471,-0.316c0.175,-0.1 0.35,-0.179 0.55,-0.242c0.087,-0.029 0.158,-0.092 0.254,-0.112c0.112,-0.025 0.221,0.004 0.333,-0.005c0.104,-0.012 0.2,-0.062 0.308,-0.062c5.196,-0 7.888,2.587 10.051,4.667c1.875,1.795 3.108,2.987 5.879,2.987c2.771,0 4.008,-1.187 5.879,-2.987c2.162,-2.08 4.854,-4.663 10.041,-4.663c5.209,0 7.905,2.583 10.071,4.663c1.879,1.8 3.113,2.987 5.892,2.987c2.779,0 4.017,-1.187 5.892,-2.987c2.166,-2.08 4.866,-4.663 10.066,-4.663c0.113,0 0.213,0.05 0.321,0.063c0.104,0.012 0.213,-0.021 0.321,0.004c0.092,0.021 0.167,0.083 0.254,0.112c0.2,0.063 0.375,0.142 0.554,0.246c0.167,0.092 0.321,0.188 0.463,0.313c0.15,0.125 0.271,0.258 0.396,0.412c0.12,0.15 0.225,0.3 0.316,0.471c0.088,0.171 0.15,0.337 0.209,0.525c0.062,0.192 0.1,0.383 0.12,0.587c0.005,0.096 0.055,0.175 0.055,0.275c-0,0.113 -0.055,0.213 -0.067,0.325c-0.013,0.109 0.017,0.213 -0.004,0.321l-21.534,98.484l10.371,-0c30.3,-20.417 52.225,-55.259 52.225,-83.196Z" style="fill:#fff;fill-rule:nonzero;"/><path d="M377.029,463.675c0,4.983 3.988,8.975 8.9,8.975l59.784,-0c4.912,-0 8.908,-3.992 8.908,-8.9c-0,-4.983 -3.996,-8.979 -8.909,-8.979l-59.783,-0c-4.912,-0 -8.9,3.996 -8.9,8.904Z" style="fill:#fff;fill-rule:nonzero;"/></g></g></g></svg>