<?xml version="1.0" encoding="UTF-8" standalone="no"?><!DOCTYPE svg PUBLIC "-//W3C//DTD SVG 1.1//EN" "http://www.w3.org/Graphics/SVG/1.1/DTD/svg11.dtd"><svg width="100%" height="100%" viewBox="0 0 257 297" version="1.1" xmlns="http://www.w3.org/2000/svg" xmlns:xlink="http://www.w3.org/1999/xlink" xml:space="preserve" xmlns:serif="http://www.serif.com/" style="fill-rule:evenodd;clip-rule:evenodd;stroke-linecap:square;stroke-miterlimit:1.5;"><path d="M239.688,63.438l-4.688,-0.001l-0,-26.875c-0,-1.875 -1.563,-3.437 -3.125,-3.437l-13.438,-0l0,-12.813c0,-1.875 -1.562,-3.437 -3.125,-3.437l-15.312,-0l-0,-2.813c-0,-7.812 -6.25,-14.062 -14.063,-14.062l-159.062,-0c-14.688,-0 -26.875,12.187 -26.875,27.188l-0,240.312c-0,15.625 12.5,29.375 27.187,29.375l175,0c9.063,0 16.563,-7.5 16.563,-16.562l-0,-1.875l13.125,-0c1.875,-0 3.437,-1.563 3.437,-3.125l0,-126.25l4.375,-0c9.063,-0 16.563,-7.5 16.563,-16.563l-0,-52.5c-0,-9.063 -7.5,-16.563 -16.563,-16.563Zm-39.687,167.188l-0,-206.875l11.562,0l0,230.313l-188.75,-0.001l0,-8.75c1.25,-0.312 2.813,-0.625 4.063,-0.625l159.062,0c7.813,0 14.063,-6.25 14.063,-14.062Zm-160.625,7.5l-0,-231.25l4.375,0l-0,231.25l-4.375,0Zm-3.438,0l-4.375,0l0,-231.25l4.375,0l0,231.25Zm157.5,-224.063l0,216.563c0,4.063 -3.437,7.5 -7.5,7.5l-139.062,0l-0,-231.25l139.062,0c4.063,0 7.5,3.125 7.5,7.188Zm-186.875,13.125c0,-11.25 9.063,-20.313 20.313,-20.313l1.25,0l-0,231.25l-1.25,0c-0.938,0 -1.875,0 -2.813,0.313l-0.625,-0c-0.625,-0 -1.25,0.312 -1.875,0.312l-2.812,0.938l-1.25,0.625l-1.563,0.625l-1.25,0.625l-1.25,0.937l-0.937,0.313l-1.25,0.937l-4.688,4.688l0,-221.25Zm205.313,253.125c-0,5.625 -4.375,10 -10,10l-173.75,-0c-2.5,-0 -4.688,-0.313 -7.188,-1.25c-8.75,-3.75 -14.375,-12.188 -14.375,-21.563c0.313,-7.5 3.75,-14.375 9.688,-19.063l-0,8.75c-0,1.25 0.937,2.5 2.187,3.125l6.563,0.313l5.937,0l0,14.375c0,1.875 1.563,3.437 3.438,3.437l177.5,0l-0,1.875Zm16.562,-240.625l0,231.875l-190.937,0l-0,-10.937l177.812,0c1.563,0 3.125,-1.563 3.125,-3.125l0,-217.813l10,0.001Zm21.25,92.812c0,5.625 -4.375,10 -10,10l-4.687,0l-0,-72.5l4.687,0c5.625,0 10,4.375 10,10l0,52.5Z" style="fill-rule:nonzero;"/><g><circle cx="114.112" cy="214.888" r="8.031" style="stroke:#000;stroke-width:5.01px;"/><ellipse cx="114.015" cy="221.913" rx="29.079" ry="5.817" style="stroke:#000;stroke-width:5.01px;"/><path d="M113.83,88.858l0.287,133.114" style="fill:none;stroke:#000;stroke-width:4.72px;"/><g><path d="M121.389,76.734l-15.341,-0c-1.261,-0 -2.284,1.023 -2.284,2.282c-0,1.28 1.023,2.304 2.284,2.304l15.341,-0c1.261,-0 2.286,-1.024 2.286,-2.283c0,-1.28 -1.025,-2.303 -2.286,-2.303Z" style="fill-rule:nonzero;"/><path d="M118.684,82.864l-9.932,-0c0.001,0.016 0.01,0.027 0.01,0.045c-0,2.732 2.222,4.956 4.955,4.956c2.734,0 4.958,-2.224 4.958,-4.956c0,-0.018 0.008,-0.03 0.009,-0.045Z" style="fill-rule:nonzero;"/><path d="M120.386,45.103c-0.555,0.533 -1.246,1.197 -2.581,1.197c-1.332,-0 -2.025,-0.664 -2.58,-1.197c-0.482,-0.462 -0.801,-0.767 -1.516,-0.767c-0.709,-0 -1.027,0.303 -1.507,0.766c-0.555,0.534 -1.245,1.198 -2.579,1.198c-1.331,-0 -2.023,-0.664 -2.578,-1.197c-0.169,-0.163 -0.32,-0.297 -0.473,-0.413l5.315,24.313l3.661,0l5.316,-24.314c-0.154,0.115 -0.307,0.251 -0.478,0.414Z" style="fill-rule:nonzero;"/><path d="M133.193,47.655c-0,-11.312 -8.736,-20.514 -19.476,-20.514c-10.737,0 -19.473,9.202 -19.473,20.514c-0.001,7.168 5.627,16.11 13.4,21.347l2.664,0l-5.525,-25.272c-0.007,-0.029 0.002,-0.056 -0.001,-0.085c-0.003,-0.028 -0.017,-0.051 -0.017,-0.08c-0,-0.025 0.011,-0.045 0.015,-0.07c0.004,-0.053 0.015,-0.103 0.031,-0.154c0.014,-0.047 0.029,-0.089 0.052,-0.131c0.023,-0.045 0.051,-0.085 0.082,-0.123c0.031,-0.039 0.062,-0.073 0.1,-0.105c0.037,-0.032 0.077,-0.057 0.121,-0.081c0.045,-0.026 0.089,-0.046 0.141,-0.062c0.022,-0.008 0.04,-0.024 0.065,-0.029c0.029,-0.006 0.057,0.001 0.086,-0.001c0.026,-0.003 0.051,-0.016 0.079,-0.016c1.333,-0 2.024,0.664 2.579,1.197c0.481,0.461 0.797,0.767 1.508,0.767c0.711,0 1.029,-0.305 1.509,-0.767c0.555,-0.533 1.246,-1.196 2.577,-1.196c1.337,-0 2.028,0.663 2.584,1.196c0.483,0.462 0.799,0.767 1.512,0.767c0.713,0 1.031,-0.305 1.512,-0.767c0.556,-0.533 1.249,-1.196 2.583,-1.196c0.029,-0 0.055,0.013 0.083,0.016c0.026,0.003 0.054,-0.005 0.082,0.001c0.024,0.005 0.043,0.021 0.065,0.029c0.052,0.016 0.097,0.036 0.142,0.063c0.043,0.024 0.083,0.048 0.119,0.08c0.039,0.032 0.07,0.066 0.102,0.106c0.031,0.039 0.057,0.077 0.081,0.121c0.022,0.044 0.038,0.086 0.053,0.135c0.017,0.049 0.026,0.098 0.031,0.15c0.002,0.025 0.014,0.045 0.014,0.071c0,0.029 -0.014,0.054 -0.017,0.083c-0.003,0.028 0.005,0.055 -0.001,0.083l-5.526,25.272l2.662,0c7.775,-5.239 13.402,-14.18 13.402,-21.349Z" style="fill-rule:nonzero;"/><path d="M103.764,72.831c-0,1.279 1.023,2.303 2.284,2.303l15.341,0c1.261,0 2.286,-1.024 2.286,-2.284c0,-1.279 -1.025,-2.304 -2.286,-2.304l-15.341,-0c-1.261,-0 -2.284,1.025 -2.284,2.285Z" style="fill-rule:nonzero;"/></g></g></svg>